<svg xmlns="http://www.w3.org/2000/svg" width="512" height="512" viewBox="0 0 512 512">
  <circle cx="256" cy="256" r="248" fill="#0e0e10"></circle>
  <circle cx="256" cy="256" r="248" fill="none" stroke="#f4f1ea" stroke-width="16"></circle>
  <g transform="translate(160,80) scale(3)">
  <ellipse cx="10" cy="12" rx="3.6" ry="2.4" fill="#4a4a52" transform="rotate(-10 10 12)"></ellipse>
  <ellipse cx="52" cy="16" rx="3.6" ry="2.4" fill="#4a4a52" transform="rotate(20 52 16)"></ellipse>
  <ellipse cx="14" cy="50" rx="3.6" ry="2.4" fill="#4a4a52" transform="rotate(25 14 50)"></ellipse>
  <ellipse cx="54" cy="50" rx="3.6" ry="2.4" fill="#4a4a52" transform="rotate(-15 54 50)"></ellipse>
  <ellipse cx="32" cy="32" rx="3.2" ry="2.2" fill="#4a4a52" transform="rotate(5 32 32)"></ellipse>
  <ellipse cx="22" cy="28" rx="3" ry="2" fill="#4a4a52" transform="rotate(-25 22 28)"></ellipse>
  <ellipse cx="44" cy="36" rx="3" ry="2" fill="#4a4a52" transform="rotate(14 44 36)"></ellipse>
  <ellipse cx="28" cy="10" rx="4" ry="2.8" fill="#7a7a7e" transform="rotate(-8 28 10)"></ellipse>
  <circle cx="28" cy="10" r="9" fill="none" stroke="#c44a8a" stroke-width="2"></circle>
  <ellipse cx="46" cy="26" rx="4" ry="2.8" fill="#7a7a7e" transform="rotate(18 46 26)"></ellipse>
  <circle cx="46" cy="26" r="9" fill="none" stroke="#3fb8c4" stroke-width="2"></circle>
  <ellipse cx="18" cy="38" rx="3.6" ry="2.6" fill="#7a7a7e" transform="rotate(-22 18 38)"></ellipse>
  <circle cx="18" cy="38" r="9" fill="none" stroke="#5fb27a" stroke-width="2"></circle>
  <ellipse cx="32" cy="54" rx="4" ry="2.8" fill="#7a7a7e" transform="rotate(5 32 54)"></ellipse>
  <circle cx="32" cy="54" r="9" fill="none" stroke="#e2a44d" stroke-width="2"></circle>
  </g>
  <text x="256" y="430" text-anchor="middle" font-family="Archivo, &#39;Helvetica Neue&#39;, Helvetica, Arial, sans-serif" font-weight="800" font-size="46" fill="#f4f1ea" letter-spacing="-1.2">boardsesh</text>
</svg>