<svg xmlns="http://www.w3.org/2000/svg" width="420" height="420" viewBox="0 0 420 420">
  <rect x="20" y="20" width="380" height="380" rx="24" fill="#0e0e10"></rect>
  <rect x="32" y="32" width="356" height="356" rx="18" fill="none" stroke="#8a8780" stroke-width="4" stroke-dasharray="10 8"></rect>
  <g transform="translate(155,70) scale(1.7)">
  <ellipse cx="10" cy="12" rx="3.6" ry="2.4" fill="#4a4a52" transform="rotate(-10 10 12)"></ellipse>
  <ellipse cx="52" cy="16" rx="3.6" ry="2.4" fill="#4a4a52" transform="rotate(20 52 16)"></ellipse>
  <ellipse cx="14" cy="50" rx="3.6" ry="2.4" fill="#4a4a52" transform="rotate(25 14 50)"></ellipse>
  <ellipse cx="54" cy="50" rx="3.6" ry="2.4" fill="#4a4a52" transform="rotate(-15 54 50)"></ellipse>
  <ellipse cx="32" cy="32" rx="3.2" ry="2.2" fill="#4a4a52" transform="rotate(5 32 32)"></ellipse>
  <ellipse cx="22" cy="28" rx="3" ry="2" fill="#4a4a52" transform="rotate(-25 22 28)"></ellipse>
  <ellipse cx="44" cy="36" rx="3" ry="2" fill="#4a4a52" transform="rotate(14 44 36)"></ellipse>
  <ellipse cx="28" cy="10" rx="4" ry="2.8" fill="#7a7a7e" transform="rotate(-8 28 10)"></ellipse>
  <circle cx="28" cy="10" r="9" fill="none" stroke="#c44a8a" stroke-width="2"></circle>
  <ellipse cx="46" cy="26" rx="4" ry="2.8" fill="#7a7a7e" transform="rotate(18 46 26)"></ellipse>
  <circle cx="46" cy="26" r="9" fill="none" stroke="#3fb8c4" stroke-width="2"></circle>
  <ellipse cx="18" cy="38" rx="3.6" ry="2.6" fill="#7a7a7e" transform="rotate(-22 18 38)"></ellipse>
  <circle cx="18" cy="38" r="9" fill="none" stroke="#5fb27a" stroke-width="2"></circle>
  <ellipse cx="32" cy="54" rx="4" ry="2.8" fill="#7a7a7e" transform="rotate(5 32 54)"></ellipse>
  <circle cx="32" cy="54" r="9" fill="none" stroke="#e2a44d" stroke-width="2"></circle>
  </g>
  <text x="210" y="280" text-anchor="middle" font-family="Archivo, &#39;Helvetica Neue&#39;, Helvetica, Arial, sans-serif" font-weight="800" font-size="44" fill="#f4f1ea" letter-spacing="-1.2">send harder.</text>
  <text x="210" y="328" text-anchor="middle" font-family="Archivo, &#39;Helvetica Neue&#39;, Helvetica, Arial, sans-serif" font-weight="800" font-size="44" fill="#f4f1ea" letter-spacing="-1.2">send together.</text>
  <text x="210" y="372" text-anchor="middle" font-family="&#39;JetBrains Mono&#39;, ui-monospace, Menlo, monospace" font-weight="500" font-size="14" fill="#8a8780" letter-spacing="3">BOARDSESH.COM</text>
</svg>