<svg xmlns="http://www.w3.org/2000/svg" width="1100" height="300" viewBox="0 0 1100 300">
  <rect width="1100" height="300" rx="20" fill="#0e0e10"></rect>
  <rect x="10" y="10" width="1080" height="280" rx="14" fill="none" stroke="#f4f1ea" stroke-width="6"></rect>
  <g transform="translate(60,76) scale(2.3)">
  <ellipse cx="10" cy="12" rx="3.6" ry="2.4" fill="#4a4a52" transform="rotate(-10 10 12)"></ellipse>
  <ellipse cx="52" cy="16" rx="3.6" ry="2.4" fill="#4a4a52" transform="rotate(20 52 16)"></ellipse>
  <ellipse cx="14" cy="50" rx="3.6" ry="2.4" fill="#4a4a52" transform="rotate(25 14 50)"></ellipse>
  <ellipse cx="54" cy="50" rx="3.6" ry="2.4" fill="#4a4a52" transform="rotate(-15 54 50)"></ellipse>
  <ellipse cx="32" cy="32" rx="3.2" ry="2.2" fill="#4a4a52" transform="rotate(5 32 32)"></ellipse>
  <ellipse cx="22" cy="28" rx="3" ry="2" fill="#4a4a52" transform="rotate(-25 22 28)"></ellipse>
  <ellipse cx="44" cy="36" rx="3" ry="2" fill="#4a4a52" transform="rotate(14 44 36)"></ellipse>
  <ellipse cx="28" cy="10" rx="4" ry="2.8" fill="#7a7a7e" transform="rotate(-8 28 10)"></ellipse>
  <circle cx="28" cy="10" r="9" fill="none" stroke="#c44a8a" stroke-width="2"></circle>
  <ellipse cx="46" cy="26" rx="4" ry="2.8" fill="#7a7a7e" transform="rotate(18 46 26)"></ellipse>
  <circle cx="46" cy="26" r="9" fill="none" stroke="#3fb8c4" stroke-width="2"></circle>
  <ellipse cx="18" cy="38" rx="3.6" ry="2.6" fill="#7a7a7e" transform="rotate(-22 18 38)"></ellipse>
  <circle cx="18" cy="38" r="9" fill="none" stroke="#5fb27a" stroke-width="2"></circle>
  <ellipse cx="32" cy="54" rx="4" ry="2.8" fill="#7a7a7e" transform="rotate(5 32 54)"></ellipse>
  <circle cx="32" cy="54" r="9" fill="none" stroke="#e2a44d" stroke-width="2"></circle>
  </g>
  <text x="240" y="148" font-family="Archivo, &#39;Helvetica Neue&#39;, Helvetica, Arial, sans-serif" font-weight="800" font-size="60" fill="#f4f1ea" letter-spacing="-1.6">I&#39;d rather be on the boardsesh.</text>
  <text x="240" y="194" font-family="&#39;JetBrains Mono&#39;, ui-monospace, Menlo, monospace" font-weight="500" font-size="20" fill="#8a8780" letter-spacing="3">BOARDSESH.COM · TRACK · TRAIN · CLIMB TOGETHER</text>
</svg>