<svg xmlns="http://www.w3.org/2000/svg" width="512" height="512" viewBox="0 0 64 64">
  <rect width="64" height="64" rx="14.375" ry="14.375" fill="#f4f1ea"></rect>
  <g transform="translate(6,6) scale(0.8125)">
  <ellipse cx="10" cy="12" rx="3.6" ry="2.4" fill="#c8c5be" transform="rotate(-10 10 12)"></ellipse>
  <ellipse cx="52" cy="16" rx="3.6" ry="2.4" fill="#c8c5be" transform="rotate(20 52 16)"></ellipse>
  <ellipse cx="14" cy="50" rx="3.6" ry="2.4" fill="#c8c5be" transform="rotate(25 14 50)"></ellipse>
  <ellipse cx="54" cy="50" rx="3.6" ry="2.4" fill="#c8c5be" transform="rotate(-15 54 50)"></ellipse>
  <ellipse cx="32" cy="32" rx="3.2" ry="2.2" fill="#c8c5be" transform="rotate(5 32 32)"></ellipse>
  <ellipse cx="22" cy="28" rx="3" ry="2" fill="#c8c5be" transform="rotate(-25 22 28)"></ellipse>
  <ellipse cx="44" cy="36" rx="3" ry="2" fill="#c8c5be" transform="rotate(14 44 36)"></ellipse>
  <ellipse cx="28" cy="10" rx="4" ry="2.8" fill="#8a8780" transform="rotate(-8 28 10)"></ellipse>
  <circle cx="28" cy="10" r="9" fill="none" stroke="#c44a8a" stroke-width="2.2"></circle>
  <ellipse cx="46" cy="26" rx="4" ry="2.8" fill="#8a8780" transform="rotate(18 46 26)"></ellipse>
  <circle cx="46" cy="26" r="9" fill="none" stroke="#3fb8c4" stroke-width="2.2"></circle>
  <ellipse cx="18" cy="38" rx="3.6" ry="2.6" fill="#8a8780" transform="rotate(-22 18 38)"></ellipse>
  <circle cx="18" cy="38" r="9" fill="none" stroke="#5fb27a" stroke-width="2.2"></circle>
  <ellipse cx="32" cy="54" rx="4" ry="2.8" fill="#8a8780" transform="rotate(5 32 54)"></ellipse>
  <circle cx="32" cy="54" r="9" fill="none" stroke="#e2a44d" stroke-width="2.2"></circle>
  </g>
</svg>