<svg xmlns="http://www.w3.org/2000/svg" width="256" height="256" viewBox="0 0 64 64">

  <ellipse cx="10" cy="12" rx="3.6" ry="2.4" fill="#3a3a3e" transform="rotate(-10 10 12)"></ellipse>
  <ellipse cx="52" cy="16" rx="3.6" ry="2.4" fill="#3a3a3e" transform="rotate(20 52 16)"></ellipse>
  <ellipse cx="14" cy="50" rx="3.6" ry="2.4" fill="#3a3a3e" transform="rotate(25 14 50)"></ellipse>
  <ellipse cx="54" cy="50" rx="3.6" ry="2.4" fill="#3a3a3e" transform="rotate(-15 54 50)"></ellipse>
  <ellipse cx="32" cy="32" rx="3.2" ry="2.2" fill="#3a3a3e" transform="rotate(5 32 32)"></ellipse>
  <ellipse cx="22" cy="28" rx="3" ry="2" fill="#3a3a3e" transform="rotate(-25 22 28)"></ellipse>
  <ellipse cx="44" cy="36" rx="3" ry="2" fill="#3a3a3e" transform="rotate(14 44 36)"></ellipse>
  <ellipse cx="28" cy="10" rx="4" ry="2.8" fill="#5a5a5e" transform="rotate(-8 28 10)"></ellipse>
  <circle cx="28" cy="10" r="9" fill="none" stroke="#f4f1ea" stroke-width="2"></circle>
  <ellipse cx="46" cy="26" rx="4" ry="2.8" fill="#5a5a5e" transform="rotate(18 46 26)"></ellipse>
  <circle cx="46" cy="26" r="9" fill="none" stroke="#f4f1ea" stroke-width="2"></circle>
  <ellipse cx="18" cy="38" rx="3.6" ry="2.6" fill="#5a5a5e" transform="rotate(-22 18 38)"></ellipse>
  <circle cx="18" cy="38" r="9" fill="none" stroke="#f4f1ea" stroke-width="2"></circle>
  <ellipse cx="32" cy="54" rx="4" ry="2.8" fill="#5a5a5e" transform="rotate(5 32 54)"></ellipse>
  <circle cx="32" cy="54" r="9" fill="none" stroke="#f4f1ea" stroke-width="2"></circle>
</svg>